<svg xmlns="http://www.w3.org/2000/svg" width="1024" height="1024" viewBox="0 0 1024 1024">
<title>Sacral / Svadhisthana</title>
<rect width="100%" height="100%" fill="none"/>
<ellipse cx="803.33" cy="512.00" rx="48.64" ry="66.56" fill="#EF6C00" fill-opacity="0.92" transform="rotate(90.00 803.33 512.00)"/>
<ellipse cx="657.66" cy="764.30" rx="48.64" ry="66.56" fill="#EF6C00" fill-opacity="0.92" transform="rotate(150.00 657.66 764.30)"/>
<ellipse cx="366.34" cy="764.30" rx="48.64" ry="66.56" fill="#EF6C00" fill-opacity="0.92" transform="rotate(210.00 366.34 764.30)"/>
<ellipse cx="220.67" cy="512.00" rx="48.64" ry="66.56" fill="#EF6C00" fill-opacity="0.92" transform="rotate(270.00 220.67 512.00)"/>
<ellipse cx="366.34" cy="259.70" rx="48.64" ry="66.56" fill="#EF6C00" fill-opacity="0.92" transform="rotate(330.00 366.34 259.70)"/>
<ellipse cx="657.66" cy="259.70" rx="48.64" ry="66.56" fill="#EF6C00" fill-opacity="0.92" transform="rotate(390.00 657.66 259.70)"/>
<circle cx="512.0" cy="512.0" r="337.92" fill="none" stroke="#EF6C00" stroke-width="18.432" opacity="0.95"/>
<circle cx="512.0" cy="512.0" r="184.32" fill="none" stroke="#EF6C00" stroke-width="18.432" opacity="0.95"/>
<circle cx="512.0" cy="512.0" r="30.72" fill="#EF6C00" opacity="0.95"/>
<circle cx="469.33" cy="512.00" r="76.80" fill="none" stroke="#EF6C00" stroke-width="14.75"/>
<circle cx="554.67" cy="512.00" r="76.80" fill="none" stroke="#EF6C00" stroke-width="14.75"/>
</svg>