<svg xmlns="http://www.w3.org/2000/svg" width="1024" height="1024" viewBox="0 0 1024 1024">
<title>Throat / Vishuddha</title>
<rect width="100%" height="100%" fill="none"/>
<ellipse cx="803.33" cy="512.00" rx="48.64" ry="66.56" fill="#1E88E5" fill-opacity="0.92" transform="rotate(90.00 803.33 512.00)"/>
<ellipse cx="781.15" cy="623.49" rx="48.64" ry="66.56" fill="#1E88E5" fill-opacity="0.92" transform="rotate(112.50 781.15 623.49)"/>
<ellipse cx="718.00" cy="718.00" rx="48.64" ry="66.56" fill="#1E88E5" fill-opacity="0.92" transform="rotate(135.00 718.00 718.00)"/>
<ellipse cx="623.49" cy="781.15" rx="48.64" ry="66.56" fill="#1E88E5" fill-opacity="0.92" transform="rotate(157.50 623.49 781.15)"/>
<ellipse cx="512.00" cy="803.33" rx="48.64" ry="66.56" fill="#1E88E5" fill-opacity="0.92" transform="rotate(180.00 512.00 803.33)"/>
<ellipse cx="400.51" cy="781.15" rx="48.64" ry="66.56" fill="#1E88E5" fill-opacity="0.92" transform="rotate(202.50 400.51 781.15)"/>
<ellipse cx="306.00" cy="718.00" rx="48.64" ry="66.56" fill="#1E88E5" fill-opacity="0.92" transform="rotate(225.00 306.00 718.00)"/>
<ellipse cx="242.85" cy="623.49" rx="48.64" ry="66.56" fill="#1E88E5" fill-opacity="0.92" transform="rotate(247.50 242.85 623.49)"/>
<ellipse cx="220.67" cy="512.00" rx="48.64" ry="66.56" fill="#1E88E5" fill-opacity="0.92" transform="rotate(270.00 220.67 512.00)"/>
<ellipse cx="242.85" cy="400.51" rx="48.64" ry="66.56" fill="#1E88E5" fill-opacity="0.92" transform="rotate(292.50 242.85 400.51)"/>
<ellipse cx="306.00" cy="306.00" rx="48.64" ry="66.56" fill="#1E88E5" fill-opacity="0.92" transform="rotate(315.00 306.00 306.00)"/>
<ellipse cx="400.51" cy="242.85" rx="48.64" ry="66.56" fill="#1E88E5" fill-opacity="0.92" transform="rotate(337.50 400.51 242.85)"/>
<ellipse cx="512.00" cy="220.67" rx="48.64" ry="66.56" fill="#1E88E5" fill-opacity="0.92" transform="rotate(360.00 512.00 220.67)"/>
<ellipse cx="623.49" cy="242.85" rx="48.64" ry="66.56" fill="#1E88E5" fill-opacity="0.92" transform="rotate(382.50 623.49 242.85)"/>
<ellipse cx="718.00" cy="306.00" rx="48.64" ry="66.56" fill="#1E88E5" fill-opacity="0.92" transform="rotate(405.00 718.00 306.00)"/>
<ellipse cx="781.15" cy="400.51" rx="48.64" ry="66.56" fill="#1E88E5" fill-opacity="0.92" transform="rotate(427.50 781.15 400.51)"/>
<circle cx="512.0" cy="512.0" r="337.92" fill="none" stroke="#1E88E5" stroke-width="18.432" opacity="0.95"/>
<circle cx="512.0" cy="512.0" r="184.32" fill="none" stroke="#1E88E5" stroke-width="18.432" opacity="0.95"/>
<circle cx="512.0" cy="512.0" r="30.72" fill="#1E88E5" opacity="0.95"/>
<polygon points="512.00,629.76 410.02,453.12 613.98,453.12" fill="none" stroke="#1E88E5" stroke-width="14.75"/>
</svg>