<svg xmlns="http://www.w3.org/2000/svg" width="1024" height="1024" viewBox="0 0 1024 1024">
<title>Crown / Sahasrara</title>
<rect width="100%" height="100%" fill="none"/>
<ellipse cx="803.33" cy="512.00" rx="48.64" ry="66.56" fill="#8E24AA" fill-opacity="0.92" transform="rotate(90.00 803.33 512.00)"/>
<ellipse cx="789.07" cy="602.03" rx="48.64" ry="66.56" fill="#8E24AA" fill-opacity="0.92" transform="rotate(108.00 789.07 602.03)"/>
<ellipse cx="747.69" cy="683.24" rx="48.64" ry="66.56" fill="#8E24AA" fill-opacity="0.92" transform="rotate(126.00 747.69 683.24)"/>
<ellipse cx="683.24" cy="747.69" rx="48.64" ry="66.56" fill="#8E24AA" fill-opacity="0.92" transform="rotate(144.00 683.24 747.69)"/>
<ellipse cx="602.03" cy="789.07" rx="48.64" ry="66.56" fill="#8E24AA" fill-opacity="0.92" transform="rotate(162.00 602.03 789.07)"/>
<ellipse cx="512.00" cy="803.33" rx="48.64" ry="66.56" fill="#8E24AA" fill-opacity="0.92" transform="rotate(180.00 512.00 803.33)"/>
<ellipse cx="421.97" cy="789.07" rx="48.64" ry="66.56" fill="#8E24AA" fill-opacity="0.92" transform="rotate(198.00 421.97 789.07)"/>
<ellipse cx="340.76" cy="747.69" rx="48.64" ry="66.56" fill="#8E24AA" fill-opacity="0.92" transform="rotate(216.00 340.76 747.69)"/>
<ellipse cx="276.31" cy="683.24" rx="48.64" ry="66.56" fill="#8E24AA" fill-opacity="0.92" transform="rotate(234.00 276.31 683.24)"/>
<ellipse cx="234.93" cy="602.03" rx="48.64" ry="66.56" fill="#8E24AA" fill-opacity="0.92" transform="rotate(252.00 234.93 602.03)"/>
<ellipse cx="220.67" cy="512.00" rx="48.64" ry="66.56" fill="#8E24AA" fill-opacity="0.92" transform="rotate(270.00 220.67 512.00)"/>
<ellipse cx="234.93" cy="421.97" rx="48.64" ry="66.56" fill="#8E24AA" fill-opacity="0.92" transform="rotate(288.00 234.93 421.97)"/>
<ellipse cx="276.31" cy="340.76" rx="48.64" ry="66.56" fill="#8E24AA" fill-opacity="0.92" transform="rotate(306.00 276.31 340.76)"/>
<ellipse cx="340.76" cy="276.31" rx="48.64" ry="66.56" fill="#8E24AA" fill-opacity="0.92" transform="rotate(324.00 340.76 276.31)"/>
<ellipse cx="421.97" cy="234.93" rx="48.64" ry="66.56" fill="#8E24AA" fill-opacity="0.92" transform="rotate(342.00 421.97 234.93)"/>
<ellipse cx="512.00" cy="220.67" rx="48.64" ry="66.56" fill="#8E24AA" fill-opacity="0.92" transform="rotate(360.00 512.00 220.67)"/>
<ellipse cx="602.03" cy="234.93" rx="48.64" ry="66.56" fill="#8E24AA" fill-opacity="0.92" transform="rotate(378.00 602.03 234.93)"/>
<ellipse cx="683.24" cy="276.31" rx="48.64" ry="66.56" fill="#8E24AA" fill-opacity="0.92" transform="rotate(396.00 683.24 276.31)"/>
<ellipse cx="747.69" cy="340.76" rx="48.64" ry="66.56" fill="#8E24AA" fill-opacity="0.92" transform="rotate(414.00 747.69 340.76)"/>
<ellipse cx="789.07" cy="421.97" rx="48.64" ry="66.56" fill="#8E24AA" fill-opacity="0.92" transform="rotate(432.00 789.07 421.97)"/>
<circle cx="512.0" cy="512.0" r="337.92" fill="none" stroke="#8E24AA" stroke-width="18.432" opacity="0.95"/>
<circle cx="512.0" cy="512.0" r="184.32" fill="none" stroke="#8E24AA" stroke-width="18.432" opacity="0.95"/>
<circle cx="512.0" cy="512.0" r="30.72" fill="#8E24AA" opacity="0.95"/>
<circle cx="629.76" cy="512.00" r="12.29" fill="#8E24AA" opacity="0.95"/>
<circle cx="613.98" cy="570.88" r="12.29" fill="#8E24AA" opacity="0.95"/>
<circle cx="570.88" cy="613.98" r="12.29" fill="#8E24AA" opacity="0.95"/>
<circle cx="512.00" cy="629.76" r="12.29" fill="#8E24AA" opacity="0.95"/>
<circle cx="453.12" cy="613.98" r="12.29" fill="#8E24AA" opacity="0.95"/>
<circle cx="410.02" cy="570.88" r="12.29" fill="#8E24AA" opacity="0.95"/>
<circle cx="394.24" cy="512.00" r="12.29" fill="#8E24AA" opacity="0.95"/>
<circle cx="410.02" cy="453.12" r="12.29" fill="#8E24AA" opacity="0.95"/>
<circle cx="453.12" cy="410.02" r="12.29" fill="#8E24AA" opacity="0.95"/>
<circle cx="512.00" cy="394.24" r="12.29" fill="#8E24AA" opacity="0.95"/>
<circle cx="570.88" cy="410.02" r="12.29" fill="#8E24AA" opacity="0.95"/>
<circle cx="613.98" cy="453.12" r="12.29" fill="#8E24AA" opacity="0.95"/>
</svg>